<svg id="Group_6_copy_6" data-name="Group 6 copy 6" xmlns="http://www.w3.org/2000/svg" width="53.75" height="50.031" viewBox="0 0 53.75 50.031">
  <defs>
    <style>
      .cls-1 {
        fill-rule: evenodd;
      }
    </style>
  </defs>
  <path id="Ellipse_4_copy_10" data-name="Ellipse 4 copy 10" class="cls-1" d="M363.761,243.032a1.421,1.421,0,1,1-1.392,1.418A1.405,1.405,0,0,1,363.761,243.032Z" transform="translate(-359 -199)"/>
  <path id="Ellipse_4_copy_10-2" data-name="Ellipse 4 copy 10" class="cls-1" d="M411.039,211.593a1.734,1.734,0,1,1-1.7,1.734A1.719,1.719,0,0,1,411.039,211.593Z" transform="translate(-359 -199)"/>
  <circle id="Ellipse_4_copy_10-3" data-name="Ellipse 4 copy 10" cx="42.922" cy="3.781" r="3.703"/>
  <path id="Shape_1_copy_4" data-name="Shape 1 copy 4" class="cls-1" d="M394.213,205.445c-0.393-2.481-9.472-3.26-15-2.22a27.561,27.561,0,0,0-9.222,3.475c-8.624,4.748-10.764,11.51-11,16.521s2.225,10.891,8.375,16.857c7.031,6.823,13.944,9.5,19.544,8.847s11.278-4.069,16.014-11.934c4.641-7.706,4.85-14.164,3.613-18.024a10.613,10.613,0,0,0-9.279-7.68c-6.517-.672-13.275,1.61-12.564,5.758,0.513,3,2.955,2.572,7.144,2.087a2.676,2.676,0,0,1,3.038,2.5c0.117,0.812-.8,2.155-2.135,2.669-1.8.692-4.225,0.745-4.845,2.086-1.751,3.8,1.289,14.627-4.516,14.939-1.939.1-3.539-1.23-4.609-7.743-0.408-2.485-.858-5.819-1.611-9.141-1.132-4.989-2.021-6.213-1.828-8.737,0.183-2.377,1.041-3.96,5.01-6.259a21.168,21.168,0,0,1,6.172-2.035C390.547,206.729,394.416,206.715,394.213,205.445Z" transform="translate(-359 -199)"/>
</svg>
